<svg width="89" height="36" viewBox="0 0 89 36" fill="none" xmlns="http://www.w3.org/2000/svg">
<rect y="1.98779" width="29.3582" height="30.8108" rx="4.04941" fill="url(#paint0_linear_169_41)"/>
<path d="M22.1365 26H17.4163L11.1307 16.5113V26H6.41041V9.02156H11.1307L17.4163 18.6306V9.02156H22.1365V26Z" fill="white"/>
<path d="M26.3212 10.627C20.5802 12.0344 18.2827 16.1003 18.2827 17.6641C18.0834 20.0098 18.4023 26.1087 18.8807 22.3555C19.3591 18.6024 24.1284 11.9953 26.3212 10.627Z" fill="white"/>
<path d="M2.02472 26.8354C7.0481 25.5363 9.05837 21.7831 9.05837 20.3396C9.2328 18.1743 8.95372 12.5446 8.53511 16.0091C8.11649 19.4735 3.94337 25.5724 2.02472 26.8354Z" fill="white"/>
<path d="M37.8156 12.8026V15.5721H43.2342V19.1605H37.8156V22.219H43.9567V26H33.0953V9.02156H43.9567V12.8026H37.8156ZM57.8008 9.02156V12.7785H51.0094V15.7648H56.0187V19.3531H51.0094V26H46.2892V9.02156H57.8008ZM70.5298 23.2305H64.509L63.5939 26H58.6328L64.8221 9.02156H70.2649L76.4301 26H71.4449L70.5298 23.2305ZM69.3497 19.618L67.5194 14.1271L65.7132 19.618H69.3497Z" fill="#222222"/>
<path d="M82.8072 2.98145L84.4798 7.41919L89 9.0613L84.4798 10.7034L82.8072 15.1412L81.1346 10.7034L76.6145 9.0613L81.1346 7.41919L82.8072 2.98145Z" fill="url(#paint1_linear_169_41)"/>
<defs>
<linearGradient id="paint0_linear_169_41" x1="-4.55558" y1="-0.993899" x2="31.2187" y2="35.4446" gradientUnits="userSpaceOnUse">
<stop stop-color="#468EF9"/>
<stop offset="1" stop-color="#0C66EE"/>
</linearGradient>
<linearGradient id="paint1_linear_169_41" x1="78.6788" y1="3.99475" x2="86.7513" y2="14.2727" gradientUnits="userSpaceOnUse">
<stop stop-color="#A239F4"/>
<stop offset="1" stop-color="#E0B9FF"/>
</linearGradient>
</defs>
</svg>
